<svg width="1280" height="82" viewBox="0 0 1280 82" fill="none" xmlns="http://www.w3.org/2000/svg">
<path d="M0 55.6698L8.88889 54.2198C17.7778 52.7698 35.5556 49.8698 53.3333 45.5198C71.1111 41.1698 88.8889 35.3698 106.667 32.4698C124.444 29.5698 142.222 29.5698 160 35.3698C177.778 41.1698 195.556 52.7698 213.333 46.9698C231.111 41.1698 248.889 17.9698 266.667 19.4198C284.444 20.8698 302.222 46.9698 320 46.9698C337.778 46.9698 355.556 20.8698 373.333 19.4198C391.111 17.9698 408.889 41.1698 426.667 48.4198C444.444 55.6698 462.222 46.9698 480 38.2698C497.778 29.5698 515.556 20.8698 533.333 23.7698C551.111 26.6698 568.889 41.1698 586.667 44.0698C604.444 46.9698 622.222 38.2698 640 32.4698C657.778 26.6698 675.556 23.7698 693.333 22.3198C711.111 20.8698 728.889 20.8698 746.667 17.9698C764.444 15.0698 782.222 9.26979 800 6.36979C817.778 3.46979 835.556 3.46979 853.333 2.01979C871.111 0.569786 888.889 -2.33021 906.667 3.46979C924.444 9.26979 942.222 23.7698 960 23.7698C977.778 23.7698 995.556 9.26979 1013.33 15.0698C1031.11 20.8698 1048.89 46.9698 1066.67 49.8698C1084.44 52.7698 1102.22 32.4698 1120 29.5698C1137.78 26.6698 1155.56 41.1698 1173.33 45.5198C1191.11 49.8698 1208.89 44.0698 1226.67 35.3698C1244.44 26.6698 1262.22 15.0698 1271.11 9.26979L1280 3.46979V81.7698H1271.11C1262.22 81.7698 1244.44 81.7698 1226.67 81.7698C1208.89 81.7698 1191.11 81.7698 1173.33 81.7698C1155.56 81.7698 1137.78 81.7698 1120 81.7698C1102.22 81.7698 1084.44 81.7698 1066.67 81.7698C1048.89 81.7698 1031.11 81.7698 1013.33 81.7698C995.556 81.7698 977.778 81.7698 960 81.7698C942.222 81.7698 924.444 81.7698 906.667 81.7698C888.889 81.7698 871.111 81.7698 853.333 81.7698C835.556 81.7698 817.778 81.7698 800 81.7698C782.222 81.7698 764.444 81.7698 746.667 81.7698C728.889 81.7698 711.111 81.7698 693.333 81.7698C675.556 81.7698 657.778 81.7698 640 81.7698C622.222 81.7698 604.444 81.7698 586.667 81.7698C568.889 81.7698 551.111 81.7698 533.333 81.7698C515.556 81.7698 497.778 81.7698 480 81.7698C462.222 81.7698 444.444 81.7698 426.667 81.7698C408.889 81.7698 391.111 81.7698 373.333 81.7698C355.556 81.7698 337.778 81.7698 320 81.7698C302.222 81.7698 284.444 81.7698 266.667 81.7698C248.889 81.7698 231.111 81.7698 213.333 81.7698C195.556 81.7698 177.778 81.7698 160 81.7698C142.222 81.7698 124.444 81.7698 106.667 81.7698C88.8889 81.7698 71.1111 81.7698 53.3333 81.7698C35.5556 81.7698 17.7778 81.7698 8.88889 81.7698H0V55.6698Z" fill="url(#paint0_linear_21_300)"/>
<defs>
<linearGradient id="paint0_linear_21_300" x1="0" y1="81.7698" x2="0" y2="0" gradientUnits="userSpaceOnUse">
<stop stop-color="white" stop-opacity="0.25"/>
<stop offset="1" stop-color="white" stop-opacity="0"/>
</linearGradient>
</defs>
</svg>
