<svg width="15" height="15" viewBox="0 0 15 15" fill="none" xmlns="http://www.w3.org/2000/svg">
<path d="M2.68125 15H2.25938C1.90917 14.9988 1.57367 14.8591 1.32603 14.6115C1.0784 14.3638 0.938735 14.0283 0.9375 13.6781V1.79062C0.938735 1.44042 1.0784 1.10492 1.32603 0.857283C1.57367 0.609651 1.90917 0.469985 2.25938 0.46875H2.68125C3.15076 0.559792 3.58198 0.790102 3.91875 1.12969L11.5078 6.50156C11.8347 6.82856 12.0183 7.272 12.0183 7.73438C12.0183 8.19675 11.8347 8.64019 11.5078 8.96719L11.4516 9.01875L3.91875 14.3391C3.58198 14.6786 3.15076 14.909 2.68125 15ZM2.65312 1.40625H2.25938C2.15739 1.40867 2.06032 1.45058 1.98862 1.52316C1.91692 1.59573 1.87619 1.6933 1.875 1.79531V13.6781C1.875 13.7801 1.9155 13.8778 1.98758 13.9499C2.05967 14.022 2.15743 14.0625 2.25938 14.0625H2.68125C2.90102 13.9523 3.10322 13.8102 3.28125 13.6406L3.36094 13.5938L10.8609 8.2875C10.9963 8.13969 11.0714 7.94653 11.0714 7.74609C11.0714 7.54566 10.9963 7.35249 10.8609 7.20469L3.28125 1.82344C3.09576 1.65138 2.88364 1.5105 2.65312 1.40625Z" fill="white" fill-opacity="0.5"/>
</svg>
