<svg width="180" height="180" viewBox="0 0 180 180" fill="none" xmlns="http://www.w3.org/2000/svg">
<rect width="180" height="180" rx="90" fill="#3E128D"/>
<path d="M126.334 133.813C123.019 132.067 114.858 127.443 111.34 124.125V115.107C122.629 108.654 130.343 97.0842 132.8 82.9266C139.186 81.0946 144.742 75.1012 144.742 69.5876C144.742 64.0047 140.545 60.2996 133.608 59.5321V19.3212L133.589 19.1587C133.497 18.3767 130.863 0 90 0C49.137 0 46.5031 18.3767 46.411 19.1591L46.3917 19.3212V59.5321C39.4545 60.2996 35.2577 64.0047 35.2577 69.5876C35.2577 75.1012 40.8143 81.0946 47.2001 82.9262C49.6566 97.0835 57.371 108.654 68.6598 115.106V124.125C65.1403 127.445 56.9705 132.073 53.66 133.816C17.4808 145.554 16.7162 166.984 16.7014 167.892L16.701 180H163.299V167.923C163.294 167.009 162.759 145.444 126.334 133.813ZM133.608 65.1273C138.569 65.8228 139.175 68.3881 139.175 69.5876C139.175 71.8631 136.712 74.9616 133.502 76.6692C133.571 75.5243 133.608 65.1273 133.608 65.1273ZM40.8247 69.5876C40.8247 68.3881 41.4308 65.8228 46.3917 65.1273C46.3917 65.1273 46.4296 75.5243 46.4979 76.6692C43.2879 74.9616 40.8247 71.8631 40.8247 69.5876ZM51.9591 19.7328C52.1091 19.0663 52.9972 16.0512 57.2341 12.9459C61.8272 9.57971 71.2403 5.56701 90 5.56701C108.76 5.56701 118.173 9.57971 122.766 12.9459C127.003 16.0512 127.891 19.0663 128.041 19.7328V46.1895C125.654 45.8176 123.827 44.9317 122.593 43.5381C120.116 40.7398 120.591 36.5816 120.594 36.556L121.017 33.4021H58.9828L59.4063 36.556C59.4119 36.5968 59.8847 40.7056 57.4341 43.5073C56.1997 44.9183 54.3633 45.815 51.9591 46.1895V19.7328V19.7328ZM51.9588 51.8085C56.0936 51.3412 59.3369 49.7876 61.6238 47.1726C63.9668 44.4945 64.7254 41.2913 64.9369 38.9691H115.063C115.275 41.2913 116.034 44.4941 118.377 47.1726C120.663 49.7876 123.907 51.3412 128.042 51.8085V61.2371H122.475V55.6701H94.6392V62.5873C93.1502 61.8317 91.5012 61.2371 90 61.2371C88.4987 61.2371 86.8498 61.832 85.3608 62.5873V55.6701H57.5258V61.2371H51.9588V51.8085ZM116.907 61.2371V67.732C116.907 70.2902 114.826 72.3711 112.268 72.3711H104.845C102.287 72.3711 100.206 70.2902 100.206 67.732V61.2371H116.907ZM79.7938 61.2371V67.732C79.7938 70.2902 77.7129 72.3711 75.1546 72.3711H67.7319C65.1737 72.3711 63.0928 70.2902 63.0928 67.732V61.2371H79.7938ZM52.4412 80.4533L52.4197 80.2652C52.1094 77.783 51.9588 75.5046 51.9588 73.299V66.8041H57.5258V67.732C57.5258 73.3598 62.1044 77.9381 67.7319 77.9381H75.1546C80.2889 77.9381 84.5484 74.1262 85.2558 69.1846C86.9578 67.9528 89.0584 66.8041 90 66.8041C90.9345 66.8041 93.0377 67.9546 94.7446 69.1868C95.4531 74.1277 99.7118 77.9381 104.845 77.9381H112.268C117.896 77.9381 122.474 73.3598 122.474 67.732V66.8041H128.041V73.299C128.041 75.5046 127.891 77.7834 127.58 80.2652L127.567 80.3984C125.627 94.173 118.238 105.316 107.278 110.983L106.896 111.181L106.871 111.205C101.77 113.758 96.0951 115.052 90 115.052C83.9104 115.052 78.2399 113.76 73.129 111.205L72.7218 110.983C61.7771 105.323 54.393 94.2023 52.4412 80.4533ZM73.519 127.112L74.2268 126.32V117.766C79.1324 119.658 84.4196 120.619 90 120.619C95.583 120.619 100.872 119.657 105.773 117.766V126.32L106.481 127.112C109.694 130.709 117.244 135.163 121.338 137.436C120.286 138.868 118.584 140.819 116.044 142.756C109.561 147.697 100.555 150.309 90 150.309C79.4446 150.309 70.4386 147.697 63.9564 142.756C61.4152 140.818 59.7121 138.865 58.6618 137.436C62.755 135.164 70.3054 130.709 73.519 127.112ZM157.732 174.433H22.268V167.989C22.2858 167.663 22.6035 163.188 26.5665 157.592C33.032 148.461 44.3754 142.922 53.4774 139.752C56.7159 144.649 66.6828 155.876 90 155.876C113.332 155.876 123.297 144.635 126.528 139.743C135.685 142.883 147.086 148.394 153.513 157.541C157.491 163.202 157.723 167.731 157.732 167.968V174.433V174.433Z" fill="#D6BEFF"/>
<path d="M90 87.2165H97.4227V81.6495H92.7835V75.1547H87.2165V84.433C87.2165 85.9703 88.4624 87.2165 90 87.2165Z" fill="#D6BEFF"/>
</svg>
